<svg width="523" height="255" viewBox="0 0 523 255" fill="none" xmlns="http://www.w3.org/2000/svg">
<path fill-rule="evenodd" clip-rule="evenodd" d="M484.077 7.86578L278.077 153.366L277.403 153.841L276.808 153.271L241.442 119.378L148.626 193.829L148.073 194.272L147.472 193.898L99.1028 163.791L16.1608 236.8L14.8394 235.298L98.3393 161.798L98.8974 161.307L99.5285 161.7L147.927 191.826L240.874 117.269L241.559 116.72L242.192 117.327L277.597 151.256L482.923 6.23218L484.077 7.86578Z" fill="url(#paint0_linear_98_9)"/>
<circle cx="19" cy="233.049" r="4" fill="#0085FF" fill-opacity="0.521569"/>
<path d="M3.025 244.679H3.773V245.108C3.773 246.835 2.662 248.254 1.001 248.804L0.561 248.089C2.035 247.627 3.025 246.439 3.025 245.108V244.679ZM3.19 244.679H3.938V245.108C3.938 246.307 4.906 247.407 6.369 247.836L5.94 248.551C4.279 248.045 3.19 246.703 3.19 245.108V244.679ZM0.825 244.162H6.127V244.899H0.825V244.162ZM3.025 242.919H3.938V244.426H3.025V242.919ZM7.348 242.963H8.261V249.057H7.348V242.963ZM8.008 245.526H9.735V246.296H8.008V245.526ZM5.093 249.299C7.128 249.299 8.36 249.959 8.36 251.092C8.36 252.236 7.128 252.885 5.093 252.885C3.058 252.885 1.826 252.236 1.826 251.092C1.826 249.959 3.058 249.299 5.093 249.299ZM5.093 250.014C3.619 250.014 2.717 250.41 2.717 251.092C2.717 251.774 3.619 252.17 5.093 252.17C6.567 252.17 7.469 251.774 7.469 251.092C7.469 250.41 6.567 250.014 5.093 250.014ZM15.6631 245.328H18.3361V246.087H15.6631V245.328ZM13.3751 243.414C14.8601 243.414 15.9381 244.36 15.9381 245.724C15.9381 247.088 14.8601 248.023 13.3751 248.023C11.8901 248.023 10.8121 247.088 10.8121 245.724C10.8121 244.36 11.8901 243.414 13.3751 243.414ZM13.3751 244.184C12.3961 244.184 11.6921 244.811 11.6921 245.724C11.6921 246.626 12.3961 247.264 13.3751 247.264C14.3541 247.264 15.0581 246.626 15.0581 245.724C15.0581 244.811 14.3541 244.184 13.3751 244.184ZM17.9291 242.963H18.8421V248.298H17.9291V242.963ZM12.4731 248.793H13.3861V250.047H17.9401V248.793H18.8421V252.775H12.4731V248.793ZM13.3861 250.773V252.038H17.9401V250.773H13.3861ZM28.0263 242.963H28.9393V252.907H28.0263V242.963ZM25.1113 244.03H26.0133C26.0133 246.912 24.7153 249.431 21.3933 251.059L20.9093 250.322C23.7803 248.936 25.1113 246.824 25.1113 244.184V244.03ZM21.3603 244.03H25.5073V244.778H21.3603V244.03Z" fill="#092CCE"/>
<path d="M81.683 148.605H88.514V149.353H81.683V148.605ZM80.55 151.894H89.559V152.664H80.55V151.894ZM84.576 148.924H85.489V152.202H84.576V148.924ZM81.683 144.755H88.415V145.503H82.596V148.935H81.683V144.755ZM97.8961 143.963H98.8201V149.298H97.8961V143.963ZM92.4071 149.793H93.3091V151.003H97.9181V149.793H98.8201V153.775H92.4071V149.793ZM93.3091 151.729V153.038H97.9181V151.729H93.3091ZM93.4851 144.436C94.9921 144.436 96.0701 145.371 96.0701 146.724C96.0701 148.088 94.9921 149.023 93.4851 149.023C91.9781 149.023 90.8891 148.088 90.8891 146.724C90.8891 145.371 91.9781 144.436 93.4851 144.436ZM93.4851 145.195C92.4951 145.195 91.7801 145.822 91.7801 146.724C91.7801 147.626 92.4951 148.253 93.4851 148.253C94.4751 148.253 95.1901 147.626 95.1901 146.724C95.1901 145.822 94.4751 145.195 93.4851 145.195ZM108.026 143.963H108.939V153.907H108.026V143.963ZM105.111 145.03H106.013C106.013 147.912 104.715 150.431 101.393 152.059L100.909 151.322C103.78 149.936 105.111 147.824 105.111 145.184V145.03ZM101.36 145.03H105.507V145.778H101.36V145.03Z" fill="#092CCE"/>
<path d="M472.828 33.0491V32.3459L475.469 29.4553C475.779 29.1168 476.034 28.8225 476.234 28.5725C476.435 28.3199 476.583 28.0829 476.68 27.8616C476.779 27.6376 476.828 27.4032 476.828 27.1584C476.828 26.8772 476.76 26.6337 476.625 26.428C476.492 26.2222 476.31 26.0634 476.078 25.9514C475.846 25.8394 475.586 25.7834 475.297 25.7834C474.99 25.7834 474.721 25.8472 474.492 25.9749C474.266 26.0999 474.09 26.2756 473.965 26.5022C473.842 26.7288 473.781 26.9944 473.781 27.2991H472.859C472.859 26.8303 472.967 26.4189 473.184 26.0647C473.4 25.7105 473.694 25.4345 474.066 25.2366C474.441 25.0387 474.862 24.9397 475.328 24.9397C475.797 24.9397 476.212 25.0387 476.574 25.2366C476.936 25.4345 477.22 25.7014 477.426 26.0374C477.632 26.3733 477.734 26.747 477.734 27.1584C477.734 27.4527 477.681 27.7405 477.574 28.0217C477.47 28.3004 477.288 28.6116 477.027 28.9553C476.77 29.2965 476.411 29.7131 475.953 30.2053L474.156 32.1272V32.1897H477.875V33.0491H472.828ZM481.63 26.3281H482.345V27.1751C482.345 29.2761 481.201 31.2121 479.628 31.9931L479.111 31.2891C480.574 30.5851 481.63 28.8911 481.63 27.1751V26.3281ZM481.806 26.3281H482.521V27.1751C482.521 28.7811 483.522 30.3981 484.941 31.1021L484.435 31.8061C482.884 31.0361 481.806 29.1551 481.806 27.1751V26.3281ZM479.386 25.6901H484.721V26.4271H479.386V25.6901ZM481.619 24.1391H482.521V26.0971H481.619V24.1391ZM485.931 23.9631H486.855V33.9071H485.931V23.9631ZM486.635 28.0441H488.483V28.8031H486.635V28.0441ZM494.92 24.5241H495.679V25.5471C495.679 27.4721 494.59 29.0451 492.885 29.6831L492.412 28.9351C493.93 28.3961 494.92 27.0651 494.92 25.5471V24.5241ZM495.085 24.5241H495.833V25.5141C495.833 26.9221 496.801 28.1651 498.253 28.6711L497.758 29.3861C496.152 28.7811 495.085 27.3181 495.085 25.5141V24.5241ZM499.683 23.9631H500.596V29.8481H499.683V23.9631ZM497.329 30.1341C499.375 30.1341 500.64 30.8271 500.64 32.0151C500.64 33.2031 499.375 33.8851 497.329 33.8851C495.272 33.8851 494.007 33.2031 494.007 32.0151C494.007 30.8271 495.272 30.1341 497.329 30.1341ZM497.329 30.8601C495.833 30.8601 494.92 31.2891 494.92 32.0151C494.92 32.7411 495.833 33.1701 497.329 33.1701C498.825 33.1701 499.738 32.7411 499.738 32.0151C499.738 31.2891 498.825 30.8601 497.329 30.8601ZM497.527 26.0641H499.881V26.8231H497.527V26.0641ZM504.984 25.0301H505.732V25.8331C505.732 27.6591 504.632 29.1881 502.96 29.7931L502.498 29.0671C503.994 28.5391 504.984 27.2521 504.984 25.8331V25.0301ZM505.149 25.0301H505.897V25.8221C505.897 27.1201 506.843 28.2861 508.306 28.7701L507.866 29.4851C506.205 28.9351 505.149 27.5161 505.149 25.8221V25.0301ZM502.773 24.7001H508.086V25.4481H502.773V24.7001ZM509.34 23.9631H510.253V29.9581H509.34V23.9631ZM510 26.4821H511.727V27.2521H510V26.4821ZM507.085 30.2221C509.109 30.2221 510.352 30.8931 510.352 32.0481C510.352 33.2141 509.109 33.8851 507.085 33.8851C505.061 33.8851 503.818 33.2141 503.818 32.0481C503.818 30.8931 505.061 30.2221 507.085 30.2221ZM507.085 30.9591C505.611 30.9591 504.709 31.3551 504.709 32.0481C504.709 32.7521 505.611 33.1701 507.085 33.1701C508.559 33.1701 509.461 32.7521 509.461 32.0481C509.461 31.3551 508.559 30.9591 507.085 30.9591ZM519.899 23.9631H520.812V33.9071H519.899V23.9631ZM516.984 25.0301H517.886C517.886 27.9121 516.588 30.4311 513.266 32.0591L512.782 31.3221C515.653 29.9361 516.984 27.8241 516.984 25.1841V25.0301ZM513.233 25.0301H517.38V25.7781H513.233V25.0301Z" fill="#092CCE"/>
<circle cx="99" cy="163.049" r="4" fill="#0085FF"/>
<circle cx="99" cy="163.049" r="2" fill="white"/>
<circle cx="99" cy="163.049" r="4.75" stroke="#0085FF" stroke-width="0.5"/>
<circle cx="241" cy="118.999" r="4" fill="#0085FF"/>
<circle cx="241" cy="118.999" r="2" fill="white"/>
<circle cx="241" cy="118.999" r="4.75" stroke="#0085FF" stroke-width="0.5"/>
<circle cx="18" cy="233.049" r="4" fill="#0085FF"/>
<circle cx="18" cy="233.049" r="2" fill="white"/>
<circle cx="18" cy="233.049" r="4.75" stroke="#0085FF" stroke-width="0.5"/>
<circle cx="467" cy="19.0491" r="4" fill="#0085FF"/>
<circle cx="467" cy="19.0491" r="2" fill="white"/>
<circle cx="467" cy="19.0491" r="4.75" stroke="#0085FF" stroke-width="0.5"/>
<path d="M219.641 101V109H218.672V102.016H218.625L216.672 103.312V102.328L218.672 101H219.641ZM224.083 102.279H224.798V103.126C224.798 105.227 223.654 107.163 222.081 107.944L221.564 107.24C223.027 106.536 224.083 104.842 224.083 103.126V102.279ZM224.259 102.279H224.974V103.126C224.974 104.732 225.975 106.349 227.394 107.053L226.888 107.757C225.337 106.987 224.259 105.106 224.259 103.126V102.279ZM221.839 101.641H227.174V102.378H221.839V101.641ZM224.072 100.09H224.974V102.048H224.072V100.09ZM228.384 99.914H229.308V109.858H228.384V99.914ZM229.088 103.995H230.936V104.754H229.088V103.995ZM237.373 100.475H238.132V101.498C238.132 103.423 237.043 104.996 235.338 105.634L234.865 104.886C236.383 104.347 237.373 103.016 237.373 101.498V100.475ZM237.538 100.475H238.286V101.465C238.286 102.873 239.254 104.116 240.706 104.622L240.211 105.337C238.605 104.732 237.538 103.269 237.538 101.465V100.475ZM242.136 99.914H243.049V105.799H242.136V99.914ZM239.782 106.085C241.828 106.085 243.093 106.778 243.093 107.966C243.093 109.154 241.828 109.836 239.782 109.836C237.725 109.836 236.46 109.154 236.46 107.966C236.46 106.778 237.725 106.085 239.782 106.085ZM239.782 106.811C238.286 106.811 237.373 107.24 237.373 107.966C237.373 108.692 238.286 109.121 239.782 109.121C241.278 109.121 242.191 108.692 242.191 107.966C242.191 107.24 241.278 106.811 239.782 106.811ZM239.98 102.015H242.334V102.774H239.98V102.015ZM247.437 100.981H248.185V101.784C248.185 103.61 247.085 105.139 245.413 105.744L244.951 105.018C246.447 104.49 247.437 103.203 247.437 101.784V100.981ZM247.602 100.981H248.35V101.773C248.35 103.071 249.296 104.237 250.759 104.721L250.319 105.436C248.658 104.886 247.602 103.467 247.602 101.773V100.981ZM245.226 100.651H250.539V101.399H245.226V100.651ZM251.793 99.914H252.706V105.909H251.793V99.914ZM252.453 102.433H254.18V103.203H252.453V102.433ZM249.538 106.173C251.562 106.173 252.805 106.844 252.805 107.999C252.805 109.165 251.562 109.836 249.538 109.836C247.514 109.836 246.271 109.165 246.271 107.999C246.271 106.844 247.514 106.173 249.538 106.173ZM249.538 106.91C248.064 106.91 247.162 107.306 247.162 107.999C247.162 108.703 248.064 109.121 249.538 109.121C251.012 109.121 251.914 108.703 251.914 107.999C251.914 107.306 251.012 106.91 249.538 106.91ZM262.352 99.914H263.265V109.858H262.352V99.914ZM259.437 100.981H260.339C260.339 103.863 259.041 106.382 255.719 108.01L255.235 107.273C258.106 105.887 259.437 103.775 259.437 101.135V100.981ZM255.686 100.981H259.833V101.729H255.686V100.981Z" fill="#092CCE"/>
<path d="M487.58 3.9562L485.078 10.4168L480.734 5.01951L487.58 3.9562Z" fill="#007EFB"/>
<defs>
<linearGradient id="paint0_linear_98_9" x1="252.521" y1="43.0662" x2="252.521" y2="237.157" gradientUnits="userSpaceOnUse">
<stop stop-color="#007EFB"/>
<stop offset="1" stop-color="#092CCE" stop-opacity="0"/>
</linearGradient>
</defs>
</svg>
